<?xml version="1.0" encoding="UTF-8"?>
<svg id="Layer_2" data-name="Layer 2" xmlns="http://www.w3.org/2000/svg" viewBox="0 0 174.63 73.26">
  <defs>
    <style>
      .cls-1 {
        font-family: OpenSauceOne-Black, 'Open Sauce One';
        font-size: 49.86px;
      }

      .cls-2 {
        fill: #fad02c;
      }
    </style>
  </defs>
  <g id="Layer_1-2" data-name="Layer 1">
    <g>
      <circle class="cls-2" cx="138" cy="36.63" r="36.63"/>
      <path d="M0,53.92v-7.98H4.89c1.99,0,2.99-1,2.99-2.99V15.87h8.97v27.17c0,2.86-.41,5.07-1.22,6.63-.81,1.56-2.08,2.66-3.79,3.29-1.71,.63-4.03,.95-6.96,.95H0Z"/>
      <path d="M29.71,52.07c-2.86-1.79-4.99-4.2-6.38-7.21-1.4-3.01-2.09-6.34-2.09-10s.7-6.98,2.09-9.97c1.4-2.99,3.52-5.38,6.36-7.15,2.84-1.78,6.36-2.67,10.55-2.67s7.65,.89,10.5,2.67c2.84,1.78,4.96,4.16,6.36,7.15s2.09,6.32,2.09,9.97-.7,6.99-2.09,10c-1.4,3.01-3.52,5.41-6.36,7.21-2.84,1.79-6.34,2.69-10.5,2.69s-7.66-.9-10.52-2.69Zm17.5-8.5c1.69-2.14,2.54-5.04,2.54-8.7s-.85-6.5-2.54-8.63c-1.7-2.13-4.02-3.19-6.98-3.19s-5.29,1.06-7.01,3.19c-1.71,2.13-2.57,5-2.57,8.63s.86,6.56,2.57,8.7c1.71,2.14,4.05,3.22,7.01,3.22s5.29-1.07,6.98-3.22Z"/>
      <path d="M80.86,53.92h-8.93V23.85h-10.72v-7.98h30.36v7.98h-10.72v30.07Z"/>
      <path d="M103.1,53.47c-2.56-.86-4.74-2.33-6.53-4.39-1.79-2.06-2.81-4.75-3.04-8.08h9.22c1.1,4.19,3.82,6.28,8.18,6.28,1.66,0,3.07-.36,4.21-1.07s1.72-1.77,1.72-3.17c0-.93-.36-1.7-1.07-2.29-.72-.6-1.61-1.06-2.69-1.4-1.08-.33-2.6-.71-4.56-1.15-2.96-.66-5.36-1.35-7.21-2.04-1.84-.7-3.44-1.8-4.79-3.32-1.35-1.51-2.02-3.56-2.02-6.16s.62-4.66,1.87-6.41c1.25-1.75,2.93-3.05,5.06-3.91,2.13-.86,4.52-1.3,7.18-1.3s5.25,.47,7.58,1.42c2.33,.95,4.25,2.38,5.78,4.29,1.53,1.91,2.49,4.23,2.89,6.96h-9.22c-.47-1.63-1.32-2.9-2.57-3.81-1.25-.91-2.8-1.37-4.66-1.37-1.4,0-2.58,.28-3.57,.85-.98,.57-1.47,1.41-1.47,2.54,0,.86,.34,1.57,1.02,2.12,.68,.55,1.54,.99,2.59,1.32,1.05,.33,2.52,.72,4.41,1.15,2.96,.67,5.4,1.36,7.33,2.09,1.93,.73,3.59,1.89,4.99,3.49,1.4,1.6,2.09,3.76,2.09,6.48,0,2.49-.6,4.65-1.79,6.48-1.2,1.83-2.91,3.23-5.13,4.21-2.23,.98-4.87,1.47-7.93,1.47-2.69,0-5.32-.43-7.88-1.3Z"/>
      <path d="M139.39,53.92h-8.93V15.87h8.93V53.92Z"/>
      <text class="cls-1" transform="translate(142.43 53.92)"><tspan x="0" y="0"> </tspan></text>
      <path d="M158.98,47.12v1.38h-8.93v-1.38h8.93Z"/>
      <path d="M158.98,44.01v1.38h-8.93v-1.74l7.13-3.84h-7.13v-1.37h8.93v1.73l-7.11,3.84h7.11Z"/>
      <path d="M158.5,35.18c-.42,.63-.98,1.1-1.67,1.41-.7,.31-1.47,.46-2.31,.46s-1.61-.15-2.31-.46-1.25-.78-1.67-1.41c-.41-.63-.62-1.41-.62-2.34,0-1.03,.25-1.87,.75-2.52,.5-.65,1.18-1.04,2.02-1.17v1.51c-.48,.09-.86,.34-1.13,.73s-.4,.88-.4,1.47c0,.89,.31,1.57,.92,2.05,.61,.48,1.43,.72,2.44,.72s1.84-.24,2.46-.72c.62-.48,.92-1.16,.92-2.05,0-.6-.15-1.09-.44-1.48-.29-.39-.71-.63-1.27-.72v-1.51c.91,.14,1.63,.53,2.15,1.17s.78,1.48,.78,2.52c0,.93-.21,1.71-.63,2.34Z"/>
      <path d="M158.87,27.95c-.16,.16-.36,.25-.58,.25s-.41-.08-.56-.25c-.16-.17-.23-.36-.23-.59,0-.21,.08-.39,.23-.55,.16-.16,.34-.23,.56-.23s.42,.08,.58,.23c.16,.16,.25,.34,.25,.55,0,.23-.08,.43-.25,.6Z"/>
    </g>
  </g>
</svg>