<?xml version="1.0" encoding="UTF-8"?>
<svg id="Layer_2" data-name="Layer 2" xmlns="http://www.w3.org/2000/svg" viewBox="0 0 631.51 931.85">
  <defs>
    <style>
      .cls-1 {
        fill: #fff;
      }

      .cls-1, .cls-2 {
        stroke: #231f20;
        stroke-miterlimit: 10;
        stroke-width: 4px;
      }

      .cls-2 {
        fill: #cecece;
      }
    </style>
  </defs>
  <g id="Layer_1-2" data-name="Layer 1">
    <g>
      <polygon class="cls-1" points="418.35 325.11 189.93 453.89 190.26 124.64 401.6 228.54 418.35 325.11"/>
      <polygon class="cls-1" points="401.6 228.54 190.26 124.64 415.43 2.25 627.15 106.41 401.6 228.54"/>
      <polygon class="cls-2" points="395.45 207.5 228.85 127.15 416.89 24.86 583.79 105.47 395.45 207.5"/>
      <polygon class="cls-1" points="216.78 928.49 4.04 824.73 4.35 308.06 215.98 412 216.78 928.49"/>
      <polygon class="cls-2" points="215.98 412 4.35 308.06 189.78 207.19 401.79 311.52 215.98 412"/>
      <polygon class="cls-1" points="215.98 392.09 43.39 310.04 211.77 218.48 189.78 207.19 4.35 308.06 215.98 412 401.79 311.52 382.85 301.78 215.98 392.09"/>
      <polygon class="cls-1" points="401.6 228.54 401.64 311.52 215.98 412 216.78 928.49 627.15 706.05 627.15 106.41 401.6 228.54"/>
      <polygon class="cls-2" points="81.08 417.07 25.41 388.54 25.43 348.85 81.08 377.35 81.08 417.07"/>
      <polygon class="cls-2" points="81.08 492.43 25.41 463.86 25.43 424.13 81.08 452.66 81.08 492.43"/>
      <polygon class="cls-2" points="81.08 567.78 25.41 539.2 25.43 499.54 81.08 528.07 81.08 567.78"/>
      <polygon class="cls-2" points="162.26 461.2 106.55 432.72 106.6 393.04 162.26 421.47 162.26 461.2"/>
      <polygon class="cls-2" points="162.26 536.58 106.55 508.04 106.6 468.4 162.26 496.87 162.26 536.58"/>
      <polygon class="cls-2" points="162.26 611.92 106.55 583.41 106.6 543.68 162.26 572.22 162.26 611.92"/>
      <polygon class="cls-2" points="81.08 647.95 25.41 619.38 25.43 579.71 81.08 608.22 81.08 647.95"/>
      <polygon class="cls-2" points="81.08 723.23 25.41 694.72 25.43 655.05 81.08 683.58 81.08 723.23"/>
      <polygon class="cls-2" points="81.08 798.57 25.41 770.1 25.43 730.33 81.08 758.91 81.08 798.57"/>
      <polygon class="cls-2" points="162.26 692.06 106.55 663.56 106.6 623.85 162.26 652.32 162.26 692.06"/>
      <polygon class="cls-2" points="162.26 767.37 106.55 738.86 106.6 699.24 162.26 727.73 162.26 767.37"/>
      <polygon class="cls-2" points="162.26 842.71 106.55 814.24 106.6 774.54 162.26 803.01 162.26 842.71"/>
      <polygon class="cls-2" points="250.15 485.78 305.82 454.13 305.76 414.52 250.15 446.06 250.15 485.78"/>
      <polygon class="cls-2" points="249.25 557.39 304.97 525.74 304.93 486.14 249.25 517.73 249.25 557.39"/>
      <polygon class="cls-2" points="250.15 629.21 305.82 597.55 305.76 557.88 250.15 589.5 250.15 629.21"/>
      <polygon class="cls-2" points="345.84 431.9 401.52 400.27 401.47 360.65 345.84 392.24 345.84 431.9"/>
      <polygon class="cls-2" points="551.81 245.82 607.5 214.26 607.5 174.55 551.81 206.18 551.81 245.82"/>
      <polygon class="cls-2" points="551.81 323.05 607.5 291.45 607.5 251.79 551.81 283.36 551.81 323.05"/>
      <polygon class="cls-2" points="551.81 404.23 607.5 372.64 607.5 332.92 551.81 364.52 551.81 404.23"/>
      <polygon class="cls-2" points="551.81 478.83 607.5 447.24 607.5 407.62 551.81 439.1 551.81 478.83"/>
      <polygon class="cls-2" points="551.81 547.87 607.5 516.26 607.5 476.56 551.81 508.17 551.81 547.87"/>
      <polygon class="cls-2" points="551.81 629 607.5 597.44 607.5 557.74 551.81 589.29 551.81 629"/>
      <polygon class="cls-2" points="551.81 703.57 607.5 672.02 607.5 632.38 551.81 663.93 551.81 703.57"/>
      <polygon class="cls-2" points="344.99 503.59 400.69 471.91 400.58 432.25 344.99 463.9 344.99 503.59"/>
      <polygon class="cls-2" points="345.84 575.34 401.52 543.72 401.47 504.08 345.84 535.63 345.84 575.34"/>
      <polygon class="cls-2" points="250.15 702.06 305.82 670.47 305.76 630.81 250.15 662.36 250.15 702.06"/>
      <polygon class="cls-2" points="249.25 773.73 304.97 742.08 304.93 702.48 249.25 734 249.25 773.73"/>
      <polygon class="cls-2" points="250.15 845.5 305.82 813.83 305.76 774.15 250.15 805.77 250.15 845.5"/>
      <polygon class="cls-2" points="345.84 648.19 401.52 616.6 401.47 576.94 345.84 608.54 345.84 648.19"/>
      <polygon class="cls-2" points="344.99 719.87 400.69 688.21 400.58 648.55 344.99 680.2 344.99 719.87"/>
      <polygon class="cls-2" points="345.84 791.61 401.52 760.06 401.47 720.36 345.84 751.97 345.84 791.61"/>
    </g>
  </g>
</svg>