<?xml version="1.0" encoding="UTF-8"?>
<svg id="Layer_2" data-name="Layer 2" xmlns="http://www.w3.org/2000/svg" viewBox="0 0 910.2 1742.6">
  <defs>
    <style>
      .cls-1 {
        fill: #fff;
      }

      .cls-1, .cls-2 {
        stroke: #231f20;
        stroke-miterlimit: 10;
        stroke-width: 4px;
      }

      .cls-2 {
        fill: #cecece;
      }
    </style>
  </defs>
  <g id="Layer_1-2" data-name="Layer 1">
    <g>
      <polygon class="cls-1" points="637.25 719.38 225.38 517.35 225.81 141.86 637.25 343.56 637.25 719.38"/>
      <polygon class="cls-1" points="637.25 343.56 225.81 141.86 493.92 2.24 905.77 204.25 637.25 343.56"/>
      <polygon class="cls-2" points="629.9 319.57 271.75 144.73 495.65 28.03 854.13 203.16 629.9 319.57"/>
      <polygon class="cls-1" points="416.29 1739.31 4.08 1536.61 4.43 351.06 416.22 552.8 416.29 1739.31"/>
      <polygon class="cls-2" points="416.22 552.8 4.43 351.06 225.23 236.03 637.45 438.16 416.22 552.8"/>
      <polygon class="cls-1" points="416.22 530.09 50.95 353.31 251.43 248.92 225.23 236.03 4.43 351.06 416.22 552.8 637.45 438.16 614.87 427.1 416.22 530.09"/>
      <polygon class="cls-1" points="637.25 343.56 637.27 438.16 416.22 552.8 416.29 1739.31 905.77 1484.48 905.77 204.25 637.25 343.56"/>
      <polygon class="cls-2" points="192.47 525.71 126.15 493.27 126.19 447.99 192.47 480.41 192.47 525.71"/>
      <polygon class="cls-2" points="192.47 611.66 126.15 579.14 126.19 533.97 192.47 566.43 192.47 611.66"/>
      <polygon class="cls-2" points="192.47 697.6 126.15 665.08 126.19 619.82 192.47 652.36 192.47 697.6"/>
      <polygon class="cls-2" points="192.47 789 126.15 756.52 126.19 711.24 192.47 743.75 192.47 789"/>
      <polygon class="cls-2" points="192.47 874.96 126.15 842.44 126.19 797.22 192.47 829.74 192.47 874.96"/>
      <polygon class="cls-2" points="288.52 843.04 222.2 810.47 222.24 765.28 288.52 797.71 288.52 843.04"/>
      <polygon class="cls-2" points="288.52 928.95 222.2 896.39 222.24 851.15 288.52 883.71 288.52 928.95"/>
      <polygon class="cls-2" points="192.47 963.87 126.15 931.35 126.19 886.13 192.47 918.65 192.47 963.87"/>
      <polygon class="cls-2" points="288.52 1017.88 222.2 985.32 222.24 940.08 288.52 972.62 288.52 1017.88"/>
      <polygon class="cls-2" points="192.47 1044.22 126.15 1011.71 126.19 966.49 192.47 999.02 192.47 1044.22"/>
      <polygon class="cls-2" points="288.52 1098.24 222.2 1065.67 222.24 1020.44 288.52 1052.98 288.52 1098.24"/>
      <polygon class="cls-2" points="385.15 893.31 318.87 860.89 318.87 815.64 385.15 848.14 385.15 893.31"/>
      <polygon class="cls-2" points="288.52 745.65 222.2 713.08 222.24 667.87 288.52 700.34 288.52 745.65"/>
      <polygon class="cls-2" points="385.15 795.92 318.87 763.49 318.87 718.27 385.15 750.72 385.15 795.92"/>
      <polygon class="cls-2" points="288.52 661.15 222.2 628.6 222.24 583.4 288.52 615.86 288.52 661.15"/>
      <polygon class="cls-2" points="385.15 711.43 318.87 679.02 318.87 633.78 385.15 666.26 385.15 711.43"/>
      <polygon class="cls-2" points="288.52 579.19 222.2 546.61 222.24 501.41 288.52 533.86 288.52 579.19"/>
      <polygon class="cls-2" points="385.15 629.44 318.87 597.03 318.87 551.79 385.15 584.27 385.15 629.44"/>
      <polygon class="cls-2" points="385.15 979.33 318.87 946.77 318.87 901.62 385.15 934.03 385.15 979.33"/>
      <polygon class="cls-2" points="385.15 1062.58 318.87 1030 318.87 984.84 385.15 1017.28 385.15 1062.58"/>
      <polygon class="cls-2" points="385.15 1147.96 318.87 1115.54 318.87 1070.3 385.15 1102.78 385.15 1147.96"/>
      <polygon class="cls-2" points="385.15 1233.99 318.87 1201.41 318.87 1156.28 385.15 1188.69 385.15 1233.99"/>
      <polygon class="cls-2" points="385.15 1317.24 318.87 1284.66 318.87 1239.52 385.15 1271.94 385.15 1317.24"/>
      <polygon class="cls-2" points="385.15 1404.53 318.87 1372.12 318.87 1326.86 385.15 1359.34 385.15 1404.53"/>
      <polygon class="cls-2" points="385.15 1490.56 318.87 1457.97 318.87 1412.8 385.15 1445.21 385.15 1490.56"/>
      <polygon class="cls-2" points="385.15 1573.78 318.87 1541.22 318.87 1496.02 385.15 1528.46 385.15 1573.78"/>
      <polygon class="cls-2" points="448.16 617.51 514.44 581.46 514.4 536.26 448.16 572.21 448.16 617.51"/>
      <polygon class="cls-2" points="447.09 699.21 513.42 663.14 513.41 617.97 447.09 653.97 447.09 699.21"/>
      <polygon class="cls-2" points="448.16 781.12 514.44 745.05 514.4 699.8 448.16 735.84 448.16 781.12"/>
      <polygon class="cls-2" points="562.09 556.11 628.37 520.01 628.33 474.82 562.09 510.84 562.09 556.11"/>
      <polygon class="cls-2" points="807.32 343.85 873.64 307.82 873.64 262.56 807.32 298.63 807.32 343.85"/>
      <polygon class="cls-2" points="807.32 431.93 873.64 395.9 873.64 350.67 807.32 386.67 807.32 431.93"/>
      <polygon class="cls-2" points="807.32 524.53 873.64 488.48 873.64 443.2 807.32 479.25 807.32 524.53"/>
      <polygon class="cls-2" points="807.32 609.6 873.64 573.57 873.64 528.39 807.32 564.28 807.32 609.6"/>
      <polygon class="cls-2" points="807.32 688.35 873.64 652.32 873.64 607.02 807.32 643.07 807.32 688.35"/>
      <polygon class="cls-2" points="561.06 637.87 627.38 601.74 627.26 556.45 561.06 592.57 561.06 637.87"/>
      <polygon class="cls-2" points="562.09 719.67 628.37 683.6 628.33 638.42 562.09 674.39 562.09 719.67"/>
      <polygon class="cls-2" points="448.16 864.22 514.44 828.19 514.4 782.95 448.16 818.92 448.16 864.22"/>
      <polygon class="cls-2" points="447.09 945.92 513.42 909.87 513.41 864.66 447.09 900.66 447.09 945.92"/>
      <polygon class="cls-2" points="448.16 1027.83 514.44 991.71 514.4 946.46 448.16 982.51 448.16 1027.83"/>
      <polygon class="cls-2" points="562.09 802.75 628.37 766.73 628.33 721.53 562.09 757.56 562.09 802.75"/>
      <polygon class="cls-2" points="561.06 884.52 627.38 848.43 627.26 803.17 561.06 839.28 561.06 884.52"/>
      <polygon class="cls-2" points="562.09 966.36 628.37 930.36 628.33 885.09 562.09 921.11 562.09 966.36"/>
      <polygon class="cls-2" points="448.16 1115.68 514.44 1079.61 514.4 1034.39 448.16 1070.38 448.16 1115.68"/>
      <polygon class="cls-2" points="447.09 1197.36 513.42 1161.31 513.41 1116.12 447.09 1152.11 447.09 1197.36"/>
      <polygon class="cls-2" points="448.16 1279.29 514.44 1243.2 514.4 1197.94 448.16 1233.99 448.16 1279.29"/>
      <polygon class="cls-2" points="562.09 1054.26 628.37 1018.19 628.33 972.99 562.09 1009 562.09 1054.26"/>
      <polygon class="cls-2" points="561.06 1136.04 627.38 1099.89 627.26 1054.63 561.06 1090.72 561.06 1136.04"/>
      <polygon class="cls-2" points="562.09 1217.84 628.37 1181.77 628.33 1136.58 562.09 1172.54 562.09 1217.84"/>
      <polygon class="cls-2" points="448.16 1362.37 514.44 1326.38 514.4 1281.15 448.16 1317.07 448.16 1362.37"/>
      <polygon class="cls-2" points="447.09 1444.1 513.42 1408.05 513.41 1362.81 447.09 1398.8 447.09 1444.1"/>
      <polygon class="cls-2" points="448.16 1526.01 514.44 1489.87 514.4 1444.63 448.16 1480.68 448.16 1526.01"/>
      <polygon class="cls-2" points="562.09 1300.95 628.37 1264.92 628.33 1219.67 562.09 1255.72 562.09 1300.95"/>
      <polygon class="cls-2" points="561.06 1382.68 627.38 1346.58 627.26 1301.34 561.06 1337.43 561.06 1382.68"/>
      <polygon class="cls-2" points="562.09 1464.54 628.37 1428.53 628.33 1383.25 562.09 1419.3 562.09 1464.54"/>
      <polygon class="cls-2" points="673.86 991.62 740.15 955.58 740.07 910.37 673.86 946.33 673.86 991.62"/>
      <polygon class="cls-2" points="672.76 1073.31 739.12 1037.25 739.08 992.04 672.76 1028.06 672.76 1073.31"/>
      <polygon class="cls-2" points="673.86 1155.2 740.15 1119.15 740.07 1073.89 673.86 1109.94 673.86 1155.2"/>
      <polygon class="cls-2" points="787.76 930.19 854.09 894.14 854 848.92 787.76 884.95 787.76 930.19"/>
      <polygon class="cls-2" points="786.78 1011.96 853.1 975.82 852.97 930.58 786.78 966.67 786.78 1011.96"/>
      <polygon class="cls-2" points="787.76 1093.76 854.09 1057.73 854 1012.49 787.76 1048.5 787.76 1093.76"/>
      <polygon class="cls-2" points="673.86 1238.29 740.15 1202.3 740.07 1157.06 673.86 1193.03 673.86 1238.29"/>
      <polygon class="cls-2" points="672.76 1320.07 739.12 1283.98 739.08 1238.78 672.76 1274.79 672.76 1320.07"/>
      <polygon class="cls-2" points="673.86 1401.93 740.15 1365.85 740.07 1320.54 673.86 1356.66 673.86 1401.93"/>
      <polygon class="cls-2" points="787.76 1176.86 854.09 1140.83 854 1095.57 787.76 1131.69 787.76 1176.86"/>
      <polygon class="cls-2" points="786.78 1258.65 853.1 1222.55 852.97 1177.25 786.78 1213.38 786.78 1258.65"/>
      <polygon class="cls-2" points="787.76 1340.45 854.09 1304.46 854 1259.22 787.76 1295.23 787.76 1340.45"/>
      <polygon class="cls-2" points="448.16 1609.34 514.44 1573.2 514.4 1527.96 448.16 1564.01 448.16 1609.34"/>
      <polygon class="cls-2" points="562.09 1547.87 628.37 1511.86 628.33 1466.58 562.09 1502.63 562.09 1547.87"/>
      <polygon class="cls-2" points="673.86 1485.27 740.15 1449.18 740.07 1403.88 673.86 1439.98 673.86 1485.27"/>
      <polygon class="cls-2" points="787.76 1423.8 854.09 1387.8 854 1342.55 787.76 1378.56 787.76 1423.8"/>
      <polygon class="cls-2" points="448.16 1723.29 514.44 1687.19 514.4 1597.54 448.16 1633.6 448.16 1723.29"/>
      <polygon class="cls-2" points="562.09 1661.82 628.37 1625.84 628.33 1536.19 562.09 1572.24 562.09 1661.82"/>
      <polygon class="cls-2" points="673.86 1605.18 740.15 1569.1 740.07 1473.48 673.86 1509.57 673.86 1605.18"/>
      <polygon class="cls-2" points="787.76 1546.01 854.09 1510.06 854 1412.16 787.76 1448.14 787.76 1546.01"/>
    </g>
  </g>
</svg>