<?xml version="1.0" encoding="UTF-8"?>
<svg id="Layer_2" data-name="Layer 2" xmlns="http://www.w3.org/2000/svg" viewBox="0 0 881.07 975.97">
  <defs>
    <style>
      .cls-1 {
        fill: #fff;
      }

      .cls-1, .cls-2 {
        stroke: #231f20;
        stroke-miterlimit: 10;
        stroke-width: 4px;
      }

      .cls-2 {
        fill: #cecece;
      }
    </style>
  </defs>
  <g id="Layer_1-2" data-name="Layer 1">
    <g>
      <polygon class="cls-1" points="616.57 612.28 218.49 440.41 218.86 120.93 616.57 292.53 616.57 612.28"/>
      <polygon class="cls-1" points="616.57 292.53 218.86 120.93 478.03 2.19 876.15 174.01 616.57 292.53"/>
      <polygon class="cls-2" points="609.48 272.13 263.3 123.41 479.7 24.12 826.27 173.11 609.48 272.13"/>
      <polygon class="cls-1" points="403.61 972.85 4.57 800.25 4.92 298.93 402.94 470.55 403.61 972.85"/>
      <polygon class="cls-2" points="402.94 470.55 4.92 298.93 218.37 201.08 616.78 373.04 402.94 470.55"/>
      <polygon class="cls-1" points="402.94 451.22 49.85 300.88 243.62 212.05 218.37 201.08 4.92 298.93 402.94 470.55 616.78 373.04 594.97 363.6 402.94 451.22"/>
      <polygon class="cls-1" points="616.57 292.53 616.61 373.04 402.94 470.55 403.61 972.85 876.15 755.89 876.15 174.01 616.57 292.53"/>
      <polygon class="cls-2" points="93.24 404.73 29.16 377 29.2 338.52 93.24 366.16 93.24 404.73"/>
      <polygon class="cls-2" points="93.24 477.8 29.16 450.11 29.2 411.58 93.24 439.29 93.24 477.8"/>
      <polygon class="cls-2" points="93.24 550.91 29.16 523.24 29.2 484.75 93.24 512.42 93.24 550.91"/>
      <polygon class="cls-2" points="186.66 447.51 122.55 419.88 122.59 381.39 186.66 408.98 186.66 447.51"/>
      <polygon class="cls-2" points="186.66 520.66 122.55 492.97 122.59 454.53 186.66 482.15 186.66 520.66"/>
      <polygon class="cls-2" points="186.66 593.75 122.55 566.08 122.59 527.56 186.66 555.24 186.66 593.75"/>
      <polygon class="cls-2" points="93.24 628.71 29.16 601 29.2 562.55 93.24 590.14 93.24 628.71"/>
      <polygon class="cls-2" points="93.24 701.78 29.16 674.09 29.2 635.61 93.24 663.31 93.24 701.78"/>
      <polygon class="cls-2" points="93.24 774.89 29.16 747.23 29.2 708.7 93.24 736.39 93.24 774.89"/>
      <polygon class="cls-2" points="186.66 671.49 122.55 643.87 122.59 605.36 186.66 633 186.66 671.49"/>
      <polygon class="cls-2" points="186.66 744.62 122.55 716.93 122.59 678.47 186.66 706.15 186.66 744.62"/>
      <polygon class="cls-2" points="186.66 817.71 122.55 790.08 122.59 751.6 186.66 779.18 186.66 817.71"/>
      <polygon class="cls-2" points="279.48 717.45 215.4 689.76 215.46 651.32 279.48 678.92 279.48 717.45"/>
      <polygon class="cls-2" points="279.48 790.59 215.4 762.83 215.46 724.39 279.48 752.05 279.48 790.59"/>
      <polygon class="cls-2" points="279.48 863.69 215.4 836.01 215.46 797.48 279.48 825.15 279.48 863.69"/>
      <polygon class="cls-2" points="372.89 760.23 308.84 732.65 308.84 694.18 372.89 721.79 372.89 760.23"/>
      <polygon class="cls-2" points="372.89 833.41 308.84 805.7 308.84 767.29 372.89 794.87 372.89 833.41"/>
      <polygon class="cls-2" points="372.89 906.5 308.84 878.85 308.84 840.36 372.89 867.97 372.89 906.5"/>
      <polygon class="cls-2" points="433.84 525.62 497.91 494.96 497.81 456.49 433.84 487.07 433.84 525.62"/>
      <polygon class="cls-2" points="432.81 595.09 496.9 564.41 496.86 525.97 432.81 556.63 432.81 595.09"/>
      <polygon class="cls-2" points="433.84 664.78 497.91 634.08 497.81 595.61 433.84 626.27 433.84 664.78"/>
      <polygon class="cls-2" points="543.95 473.36 608.02 442.68 607.98 404.19 543.95 434.85 543.95 473.36"/>
      <polygon class="cls-2" points="781 292.8 845.05 262.14 845.05 223.63 781 254.34 781 292.8"/>
      <polygon class="cls-2" points="781 367.73 845.05 337.07 845.05 298.58 781 329.22 781 367.73"/>
      <polygon class="cls-2" points="781 446.5 845.05 415.83 845.05 377.33 781 407.99 781 446.5"/>
      <polygon class="cls-2" points="781 518.86 845.05 488.23 845.05 449.76 781 480.34 781 518.86"/>
      <polygon class="cls-2" points="781 585.84 845.05 555.18 845.05 516.67 781 547.32 781 585.84"/>
      <polygon class="cls-2" points="781 664.59 845.05 633.96 845.05 595.45 781 626.07 781 664.59"/>
      <polygon class="cls-2" points="781 736.98 845.05 706.39 845.05 667.86 781 698.5 781 736.98"/>
      <polygon class="cls-2" points="542.96 542.9 607.07 512.18 606.95 473.67 542.96 504.37 542.96 542.9"/>
      <polygon class="cls-2" points="543.95 612.52 608.02 581.84 607.98 543.39 543.95 573.99 543.95 612.52"/>
      <polygon class="cls-2" points="433.84 735.49 497.91 704.81 497.81 666.35 433.84 696.95 433.84 735.49"/>
      <polygon class="cls-2" points="432.81 804.99 496.9 774.33 496.86 735.87 432.81 766.47 432.81 804.99"/>
      <polygon class="cls-2" points="433.84 874.66 497.91 843.95 497.81 805.45 433.84 836.13 433.84 874.66"/>
      <polygon class="cls-2" points="543.95 683.21 608.02 652.54 607.98 614.09 543.95 644.75 543.95 683.21"/>
      <polygon class="cls-2" points="542.96 752.76 607.07 722.08 606.95 683.53 542.96 714.23 542.96 752.76"/>
      <polygon class="cls-2" points="543.95 822.38 608.02 791.78 607.98 753.25 543.95 783.89 543.95 822.38"/>
    </g>
  </g>
</svg>